<svg xmlns="http://www.w3.org/2000/svg" xmlns:xlink="http://www.w3.org/1999/xlink" width="1920" zoomAndPan="magnify" viewBox="0 0 1440 809.999993" height="1080" preserveAspectRatio="xMidYMid meet" version="1.0"><defs><clipPath id="408479e27f"><path d="M 74.6875 82.328125 L 397.34375 82.328125 L 397.34375 404.984375 L 74.6875 404.984375 Z M 74.6875 82.328125 " clip-rule="nonzero"/></clipPath><clipPath id="c4856d0b01"><path d="M 181 83 L 184 83 L 184 404.984375 L 181 404.984375 Z M 181 83 " clip-rule="nonzero"/></clipPath><clipPath id="3d26f97772"><path d="M 288 83 L 291 83 L 291 404.984375 L 288 404.984375 Z M 288 83 " clip-rule="nonzero"/></clipPath><clipPath id="da19b3674c"><path d="M 74.6875 404.984375 L 397.34375 404.984375 L 397.34375 727.640625 L 74.6875 727.640625 Z M 74.6875 404.984375 " clip-rule="nonzero"/></clipPath><clipPath id="5ca846e6a4"><path d="M 397.34375 82.328125 L 720 82.328125 L 720 404.984375 L 397.34375 404.984375 Z M 397.34375 82.328125 " clip-rule="nonzero"/></clipPath><clipPath id="b0051009a0"><path d="M 504 83 L 507 83 L 507 404.984375 L 504 404.984375 Z M 504 83 " clip-rule="nonzero"/></clipPath><clipPath id="75394c104d"><path d="M 611 83 L 614 83 L 614 404.984375 L 611 404.984375 Z M 611 83 " clip-rule="nonzero"/></clipPath><clipPath id="40d9ee25a7"><path d="M 397.34375 404.984375 L 720 404.984375 L 720 727.640625 L 397.34375 727.640625 Z M 397.34375 404.984375 " clip-rule="nonzero"/></clipPath><clipPath id="06de9ba7c2"><path d="M 720 82.328125 L 1042.65625 82.328125 L 1042.65625 404.984375 L 720 404.984375 Z M 720 82.328125 " clip-rule="nonzero"/></clipPath><clipPath id="5abfbdf4e9"><path d="M 827 83 L 829 83 L 829 404.984375 L 827 404.984375 Z M 827 83 " clip-rule="nonzero"/></clipPath><clipPath id="b4d1a7685e"><path d="M 934 83 L 936 83 L 936 404.984375 L 934 404.984375 Z M 934 83 " clip-rule="nonzero"/></clipPath><clipPath id="0175e38cee"><path d="M 720 404.984375 L 1042.65625 404.984375 L 1042.65625 727.640625 L 720 727.640625 Z M 720 404.984375 " clip-rule="nonzero"/></clipPath><clipPath id="6af9ae989b"><path d="M 1042.65625 82.328125 L 1365.3125 82.328125 L 1365.3125 404.984375 L 1042.65625 404.984375 Z M 1042.65625 82.328125 " clip-rule="nonzero"/></clipPath><clipPath id="ba4dc59d4a"><path d="M 1149 83 L 1152 83 L 1152 404.984375 L 1149 404.984375 Z M 1149 83 " clip-rule="nonzero"/></clipPath><clipPath id="4ffe0d4c4a"><path d="M 1256 83 L 1259 83 L 1259 404.984375 L 1256 404.984375 Z M 1256 83 " clip-rule="nonzero"/></clipPath><clipPath id="560620ff27"><path d="M 1042.65625 404.984375 L 1365.3125 404.984375 L 1365.3125 727.640625 L 1042.65625 727.640625 Z M 1042.65625 404.984375 " clip-rule="nonzero"/></clipPath></defs><g clip-path="url(#408479e27f)"><path fill="#28272d" d="M 76.359375 403.332031 L 395.804688 403.332031 L 395.804688 83.886719 L 76.359375 83.886719 Z M 397.410156 404.933594 L 74.753906 404.933594 L 74.753906 82.28125 L 397.410156 82.28125 Z M 397.410156 404.933594 " fill-opacity="1" fill-rule="nonzero"/></g><path fill="#28272d" d="M 75.554688 189.351562 L 396.605469 189.351562 L 396.605469 190.957031 L 75.554688 190.957031 Z M 75.554688 189.351562 " fill-opacity="1" fill-rule="nonzero"/><path fill="#28272d" d="M 75.554688 296.261719 L 396.605469 296.261719 L 396.605469 297.867188 L 75.554688 297.867188 Z M 75.554688 296.261719 " fill-opacity="1" fill-rule="nonzero"/><g clip-path="url(#c4856d0b01)"><path fill="#28272d" d="M 181.746094 83.082031 L 183.351562 83.082031 L 183.351562 404.132812 L 181.746094 404.132812 Z M 181.746094 83.082031 " fill-opacity="1" fill-rule="nonzero"/></g><g clip-path="url(#3d26f97772)"><path fill="#28272d" d="M 288.8125 83.082031 L 290.417969 83.082031 L 290.417969 404.132812 L 288.8125 404.132812 Z M 288.8125 83.082031 " fill-opacity="1" fill-rule="nonzero"/></g><g clip-path="url(#da19b3674c)"><path fill="#28272d" d="M 76.359375 725.984375 L 395.804688 725.984375 L 395.804688 406.539062 L 76.359375 406.539062 Z M 397.410156 727.589844 L 74.753906 727.589844 L 74.753906 404.9375 L 397.410156 404.9375 Z M 397.410156 727.589844 " fill-opacity="1" fill-rule="nonzero"/></g><path fill="#28272d" d="M 75.554688 512.007812 L 396.605469 512.007812 L 396.605469 513.609375 L 75.554688 513.609375 Z M 75.554688 512.007812 " fill-opacity="1" fill-rule="nonzero"/><path fill="#28272d" d="M 75.554688 618.917969 L 396.605469 618.917969 L 396.605469 620.523438 L 75.554688 620.523438 Z M 75.554688 618.917969 " fill-opacity="1" fill-rule="nonzero"/><path fill="#28272d" d="M 181.746094 405.738281 L 183.351562 405.738281 L 183.351562 726.789062 L 181.746094 726.789062 Z M 181.746094 405.738281 " fill-opacity="1" fill-rule="nonzero"/><path fill="#28272d" d="M 288.8125 405.738281 L 290.417969 405.738281 L 290.417969 726.789062 L 288.8125 726.789062 Z M 288.8125 405.738281 " fill-opacity="1" fill-rule="nonzero"/><g clip-path="url(#5ca846e6a4)"><path fill="#28272d" d="M 399.015625 403.332031 L 718.457031 403.332031 L 718.457031 83.886719 L 399.015625 83.886719 Z M 720.0625 404.933594 L 397.410156 404.933594 L 397.410156 82.28125 L 720.0625 82.28125 Z M 720.0625 404.933594 " fill-opacity="1" fill-rule="nonzero"/></g><path fill="#28272d" d="M 398.210938 189.351562 L 719.261719 189.351562 L 719.261719 190.957031 L 398.210938 190.957031 Z M 398.210938 189.351562 " fill-opacity="1" fill-rule="nonzero"/><path fill="#28272d" d="M 398.210938 296.261719 L 719.261719 296.261719 L 719.261719 297.867188 L 398.210938 297.867188 Z M 398.210938 296.261719 " fill-opacity="1" fill-rule="nonzero"/><g clip-path="url(#b0051009a0)"><path fill="#28272d" d="M 504.398438 83.082031 L 506.003906 83.082031 L 506.003906 404.132812 L 504.398438 404.132812 Z M 504.398438 83.082031 " fill-opacity="1" fill-rule="nonzero"/></g><g clip-path="url(#75394c104d)"><path fill="#28272d" d="M 611.46875 83.082031 L 613.074219 83.082031 L 613.074219 404.132812 L 611.46875 404.132812 Z M 611.46875 83.082031 " fill-opacity="1" fill-rule="nonzero"/></g><g clip-path="url(#40d9ee25a7)"><path fill="#28272d" d="M 399.015625 725.984375 L 718.457031 725.984375 L 718.457031 406.539062 L 399.015625 406.539062 Z M 720.0625 727.589844 L 397.410156 727.589844 L 397.410156 404.9375 L 720.0625 404.9375 Z M 720.0625 727.589844 " fill-opacity="1" fill-rule="nonzero"/></g><path fill="#28272d" d="M 398.210938 512.007812 L 719.261719 512.007812 L 719.261719 513.609375 L 398.210938 513.609375 Z M 398.210938 512.007812 " fill-opacity="1" fill-rule="nonzero"/><path fill="#28272d" d="M 398.210938 618.917969 L 719.261719 618.917969 L 719.261719 620.523438 L 398.210938 620.523438 Z M 398.210938 618.917969 " fill-opacity="1" fill-rule="nonzero"/><path fill="#28272d" d="M 504.398438 405.738281 L 506.003906 405.738281 L 506.003906 726.789062 L 504.398438 726.789062 Z M 504.398438 405.738281 " fill-opacity="1" fill-rule="nonzero"/><path fill="#28272d" d="M 611.46875 405.738281 L 613.074219 405.738281 L 613.074219 726.789062 L 611.46875 726.789062 Z M 611.46875 405.738281 " fill-opacity="1" fill-rule="nonzero"/><g clip-path="url(#06de9ba7c2)"><path fill="#28272d" d="M 721.667969 403.332031 L 1041.113281 403.332031 L 1041.113281 83.886719 L 721.667969 83.886719 Z M 1042.71875 404.933594 L 720.0625 404.933594 L 720.0625 82.28125 L 1042.71875 82.28125 Z M 1042.71875 404.933594 " fill-opacity="1" fill-rule="nonzero"/></g><path fill="#28272d" d="M 720.867188 189.351562 L 1041.917969 189.351562 L 1041.917969 190.957031 L 720.867188 190.957031 Z M 720.867188 189.351562 " fill-opacity="1" fill-rule="nonzero"/><path fill="#28272d" d="M 720.867188 296.261719 L 1041.917969 296.261719 L 1041.917969 297.867188 L 720.867188 297.867188 Z M 720.867188 296.261719 " fill-opacity="1" fill-rule="nonzero"/><g clip-path="url(#5abfbdf4e9)"><path fill="#28272d" d="M 827.054688 83.082031 L 828.660156 83.082031 L 828.660156 404.132812 L 827.054688 404.132812 Z M 827.054688 83.082031 " fill-opacity="1" fill-rule="nonzero"/></g><g clip-path="url(#b4d1a7685e)"><path fill="#28272d" d="M 934.125 83.082031 L 935.730469 83.082031 L 935.730469 404.132812 L 934.125 404.132812 Z M 934.125 83.082031 " fill-opacity="1" fill-rule="nonzero"/></g><g clip-path="url(#0175e38cee)"><path fill="#28272d" d="M 721.667969 725.984375 L 1041.113281 725.984375 L 1041.113281 406.539062 L 721.667969 406.539062 Z M 1042.71875 727.589844 L 720.0625 727.589844 L 720.0625 404.9375 L 1042.71875 404.9375 Z M 1042.71875 727.589844 " fill-opacity="1" fill-rule="nonzero"/></g><path fill="#28272d" d="M 720.867188 512.007812 L 1041.917969 512.007812 L 1041.917969 513.609375 L 720.867188 513.609375 Z M 720.867188 512.007812 " fill-opacity="1" fill-rule="nonzero"/><path fill="#28272d" d="M 720.867188 618.917969 L 1041.917969 618.917969 L 1041.917969 620.523438 L 720.867188 620.523438 Z M 720.867188 618.917969 " fill-opacity="1" fill-rule="nonzero"/><path fill="#28272d" d="M 827.054688 405.738281 L 828.660156 405.738281 L 828.660156 726.789062 L 827.054688 726.789062 Z M 827.054688 405.738281 " fill-opacity="1" fill-rule="nonzero"/><path fill="#28272d" d="M 934.125 405.738281 L 935.730469 405.738281 L 935.730469 726.789062 L 934.125 726.789062 Z M 934.125 405.738281 " fill-opacity="1" fill-rule="nonzero"/><g clip-path="url(#6af9ae989b)"><path fill="#28272d" d="M 1044.324219 403.332031 L 1363.769531 403.332031 L 1363.769531 83.886719 L 1044.324219 83.886719 Z M 1365.375 404.933594 L 1042.71875 404.933594 L 1042.71875 82.28125 L 1365.375 82.28125 Z M 1365.375 404.933594 " fill-opacity="1" fill-rule="nonzero"/></g><path fill="#28272d" d="M 1043.523438 189.351562 L 1364.574219 189.351562 L 1364.574219 190.957031 L 1043.523438 190.957031 Z M 1043.523438 189.351562 " fill-opacity="1" fill-rule="nonzero"/><path fill="#28272d" d="M 1043.523438 296.261719 L 1364.574219 296.261719 L 1364.574219 297.867188 L 1043.523438 297.867188 Z M 1043.523438 296.261719 " fill-opacity="1" fill-rule="nonzero"/><g clip-path="url(#ba4dc59d4a)"><path fill="#28272d" d="M 1149.710938 83.082031 L 1151.316406 83.082031 L 1151.316406 404.132812 L 1149.710938 404.132812 Z M 1149.710938 83.082031 " fill-opacity="1" fill-rule="nonzero"/></g><g clip-path="url(#4ffe0d4c4a)"><path fill="#28272d" d="M 1256.78125 83.082031 L 1258.386719 83.082031 L 1258.386719 404.132812 L 1256.78125 404.132812 Z M 1256.78125 83.082031 " fill-opacity="1" fill-rule="nonzero"/></g><g clip-path="url(#560620ff27)"><path fill="#28272d" d="M 1044.324219 725.984375 L 1363.769531 725.984375 L 1363.769531 406.539062 L 1044.324219 406.539062 Z M 1365.375 727.589844 L 1042.71875 727.589844 L 1042.71875 404.9375 L 1365.375 404.9375 Z M 1365.375 727.589844 " fill-opacity="1" fill-rule="nonzero"/></g><path fill="#28272d" d="M 1043.523438 512.007812 L 1364.574219 512.007812 L 1364.574219 513.609375 L 1043.523438 513.609375 Z M 1043.523438 512.007812 " fill-opacity="1" fill-rule="nonzero"/><path fill="#28272d" d="M 1043.523438 618.917969 L 1364.574219 618.917969 L 1364.574219 620.523438 L 1043.523438 620.523438 Z M 1043.523438 618.917969 " fill-opacity="1" fill-rule="nonzero"/><path fill="#28272d" d="M 1149.710938 405.738281 L 1151.316406 405.738281 L 1151.316406 726.789062 L 1149.710938 726.789062 Z M 1149.710938 405.738281 " fill-opacity="1" fill-rule="nonzero"/><path fill="#28272d" d="M 1256.78125 405.738281 L 1258.386719 405.738281 L 1258.386719 726.789062 L 1256.78125 726.789062 Z M 1256.78125 405.738281 " fill-opacity="1" fill-rule="nonzero"/></svg>